<mxfile host="Electron" modified="2024-06-24T15:50:33.806Z" agent="Mozilla/5.0 (Windows NT 10.0; Win64; x64) AppleWebKit/537.36 (KHTML, like Gecko) draw.io/21.6.8 Chrome/114.0.5735.289 Electron/25.5.0 Safari/537.36" etag="9bx-6PoPZ2VG5doHueTO" version="21.6.8" type="device">
  <diagram name="Page-1" id="-iaI0_rcVFdvOOcmjyhH">
    <mxGraphModel dx="2806" dy="1271" grid="1" gridSize="10" guides="1" tooltips="1" connect="1" arrows="1" fold="1" page="1" pageScale="1" pageWidth="850" pageHeight="1100" math="0" shadow="0">
      <root>
        <mxCell id="0" />
        <mxCell id="1" parent="0" />
        <mxCell id="lVgYKHHcY3sC3g97FkwV-1" value="User" style="rounded=0;whiteSpace=wrap;html=1;fontSize=16;" parent="1" vertex="1">
          <mxGeometry x="-460" y="80" width="120" height="60" as="geometry" />
        </mxCell>
        <mxCell id="lVgYKHHcY3sC3g97FkwV-18" style="edgeStyle=orthogonalEdgeStyle;rounded=0;orthogonalLoop=1;jettySize=auto;html=1;exitX=0.5;exitY=1;exitDx=0;exitDy=0;fontSize=16;" parent="1" source="lVgYKHHcY3sC3g97FkwV-2" target="lVgYKHHcY3sC3g97FkwV-4" edge="1">
          <mxGeometry relative="1" as="geometry" />
        </mxCell>
        <mxCell id="lVgYKHHcY3sC3g97FkwV-2" value="&lt;div style=&quot;font-size: 16px;&quot;&gt;&lt;br style=&quot;font-size: 16px;&quot;&gt;&lt;/div&gt;&lt;div style=&quot;font-size: 16px;&quot;&gt;1&lt;/div&gt;test-register.php&lt;div style=&quot;font-size: 16px;&quot;&gt;&lt;br style=&quot;font-size: 16px;&quot;&gt;&lt;/div&gt;" style="ellipse;whiteSpace=wrap;html=1;aspect=fixed;fontSize=16;" parent="1" vertex="1">
          <mxGeometry x="375" y="61.25" width="97.5" height="97.5" as="geometry" />
        </mxCell>
        <mxCell id="lVgYKHHcY3sC3g97FkwV-36" style="edgeStyle=orthogonalEdgeStyle;rounded=0;orthogonalLoop=1;jettySize=auto;html=1;entryX=0.5;entryY=0;entryDx=0;entryDy=0;fontSize=16;" parent="1" source="lVgYKHHcY3sC3g97FkwV-4" target="lVgYKHHcY3sC3g97FkwV-5" edge="1">
          <mxGeometry relative="1" as="geometry" />
        </mxCell>
        <mxCell id="lVgYKHHcY3sC3g97FkwV-4" value="&lt;div style=&quot;font-size: 16px;&quot;&gt;2&lt;/div&gt;&lt;div style=&quot;font-size: 16px;&quot;&gt;test-login.php&lt;div style=&quot;border-color: var(--border-color); font-size: 16px;&quot;&gt;&lt;br style=&quot;border-color: var(--border-color); font-size: 16px;&quot;&gt;&lt;/div&gt;&lt;/div&gt;" style="ellipse;whiteSpace=wrap;html=1;aspect=fixed;fontSize=16;" parent="1" vertex="1">
          <mxGeometry x="373.75" y="200" width="100" height="100" as="geometry" />
        </mxCell>
        <mxCell id="1T31Ztm-W3N6O8VmwnyI-1" style="edgeStyle=orthogonalEdgeStyle;rounded=0;orthogonalLoop=1;jettySize=auto;html=1;" parent="1" source="lVgYKHHcY3sC3g97FkwV-5" target="lVgYKHHcY3sC3g97FkwV-38" edge="1">
          <mxGeometry relative="1" as="geometry" />
        </mxCell>
        <mxCell id="lVgYKHHcY3sC3g97FkwV-5" value="&lt;div style=&quot;font-size: 16px;&quot;&gt;3&lt;/div&gt;test-display.php" style="ellipse;whiteSpace=wrap;html=1;aspect=fixed;fontSize=16;" parent="1" vertex="1">
          <mxGeometry x="373.75" y="335" width="100" height="100" as="geometry" />
        </mxCell>
        <mxCell id="cpMGikvbHMnme9OzsODJ-16" style="edgeStyle=orthogonalEdgeStyle;rounded=0;orthogonalLoop=1;jettySize=auto;html=1;entryX=0.5;entryY=0;entryDx=0;entryDy=0;" edge="1" parent="1" source="lVgYKHHcY3sC3g97FkwV-7" target="lVgYKHHcY3sC3g97FkwV-8">
          <mxGeometry relative="1" as="geometry" />
        </mxCell>
        <mxCell id="lVgYKHHcY3sC3g97FkwV-7" value="&lt;div style=&quot;font-size: 16px;&quot;&gt;6&lt;/div&gt;&lt;div style=&quot;font-size: 16px;&quot;&gt;test-display-pest.php&lt;div style=&quot;border-color: var(--border-color); font-size: 16px;&quot;&gt;&lt;br style=&quot;border-color: var(--border-color); font-size: 16px;&quot;&gt;&lt;/div&gt;&lt;/div&gt;" style="ellipse;whiteSpace=wrap;html=1;aspect=fixed;fontSize=16;" parent="1" vertex="1">
          <mxGeometry x="373.75" y="740" width="100" height="100" as="geometry" />
        </mxCell>
        <mxCell id="lVgYKHHcY3sC3g97FkwV-11" value="Modderator" style="rounded=0;whiteSpace=wrap;html=1;fontSize=16;" parent="1" vertex="1">
          <mxGeometry x="-460" y="319" width="120" height="60" as="geometry" />
        </mxCell>
        <mxCell id="lVgYKHHcY3sC3g97FkwV-14" value="MySQL&lt;br style=&quot;font-size: 16px;&quot;&gt;Login&lt;br style=&quot;font-size: 16px;&quot;&gt;Table" style="html=1;dashed=0;whiteSpace=wrap;shape=partialRectangle;right=0;left=0;fontSize=16;" parent="1" vertex="1">
          <mxGeometry x="890" y="80" width="140" height="60" as="geometry" />
        </mxCell>
        <mxCell id="lVgYKHHcY3sC3g97FkwV-15" value="MySQL&lt;br style=&quot;font-size: 16px;&quot;&gt;Accounts&lt;br style=&quot;font-size: 16px;&quot;&gt;Table" style="html=1;dashed=0;whiteSpace=wrap;shape=partialRectangle;right=0;left=0;fontSize=16;" parent="1" vertex="1">
          <mxGeometry x="1110" y="390" width="140" height="60" as="geometry" />
        </mxCell>
        <mxCell id="lVgYKHHcY3sC3g97FkwV-26" value="Provides username,password,email,bio and profile picture" style="edgeLabel;html=1;align=center;verticalAlign=middle;resizable=0;points=[];fontSize=16;" parent="1" vertex="1" connectable="0">
          <mxGeometry x="79.99999999999991" y="80" as="geometry" />
        </mxCell>
        <mxCell id="lVgYKHHcY3sC3g97FkwV-28" value="Stores username,password,email,bio and profile picture" style="edgeLabel;html=1;align=center;verticalAlign=middle;resizable=0;points=[];fontSize=16;" parent="1" vertex="1" connectable="0">
          <mxGeometry x="690.0033333333336" y="180" as="geometry">
            <mxPoint x="-7" y="14" as="offset" />
          </mxGeometry>
        </mxCell>
        <mxCell id="lVgYKHHcY3sC3g97FkwV-29" value="Stores username,password&lt;br style=&quot;font-size: 16px;&quot;&gt;" style="edgeLabel;html=1;align=center;verticalAlign=middle;resizable=0;points=[];fontSize=16;" parent="1" vertex="1" connectable="0">
          <mxGeometry x="740.0033333333336" y="50" as="geometry" />
        </mxCell>
        <mxCell id="lVgYKHHcY3sC3g97FkwV-33" value="provides username and password&lt;br style=&quot;font-size: 16px;&quot;&gt;" style="edgeLabel;html=1;align=center;verticalAlign=middle;resizable=0;points=[];fontSize=16;" parent="1" vertex="1" connectable="0">
          <mxGeometry x="100.00005604045054" y="230.00031282055517" as="geometry" />
        </mxCell>
        <mxCell id="lVgYKHHcY3sC3g97FkwV-34" value="checks email&amp;nbsp;and passwrod" style="text;html=1;align=center;verticalAlign=middle;resizable=0;points=[];autosize=1;strokeColor=none;fillColor=none;fontSize=16;" parent="1" vertex="1">
          <mxGeometry x="625" width="220" height="30" as="geometry" />
        </mxCell>
        <mxCell id="lVgYKHHcY3sC3g97FkwV-35" value="return correct email&amp;nbsp;and passwrod&amp;nbsp;&lt;br style=&quot;font-size: 16px;&quot;&gt;or not&lt;br style=&quot;font-size: 16px;&quot;&gt;" style="text;html=1;align=center;verticalAlign=middle;resizable=0;points=[];autosize=1;strokeColor=none;fillColor=none;fontSize=16;" parent="1" vertex="1">
          <mxGeometry x="575" y="255" width="270" height="50" as="geometry" />
        </mxCell>
        <mxCell id="cpMGikvbHMnme9OzsODJ-14" style="edgeStyle=orthogonalEdgeStyle;rounded=0;orthogonalLoop=1;jettySize=auto;html=1;" edge="1" parent="1" source="lVgYKHHcY3sC3g97FkwV-38" target="lVgYKHHcY3sC3g97FkwV-84">
          <mxGeometry relative="1" as="geometry" />
        </mxCell>
        <mxCell id="lVgYKHHcY3sC3g97FkwV-38" value="4&lt;div style=&quot;font-size: 16px;&quot;&gt;test-posting.php&lt;div style=&quot;border-color: var(--border-color); font-size: 16px;&quot;&gt;&lt;br style=&quot;border-color: var(--border-color); font-size: 16px;&quot;&gt;&lt;/div&gt;&lt;/div&gt;" style="ellipse;whiteSpace=wrap;html=1;aspect=fixed;fontSize=16;" parent="1" vertex="1">
          <mxGeometry x="373.75" y="470" width="100" height="100" as="geometry" />
        </mxCell>
        <mxCell id="lVgYKHHcY3sC3g97FkwV-44" value="Provides user id" style="text;html=1;align=center;verticalAlign=middle;resizable=0;points=[];autosize=1;strokeColor=none;fillColor=none;fontSize=16;" parent="1" vertex="1">
          <mxGeometry x="190" y="305" width="140" height="30" as="geometry" />
        </mxCell>
        <mxCell id="lVgYKHHcY3sC3g97FkwV-45" value="displays post content" style="text;html=1;align=center;verticalAlign=middle;resizable=0;points=[];autosize=1;strokeColor=none;fillColor=none;fontSize=16;" parent="1" vertex="1">
          <mxGeometry x="197" y="379" width="170" height="30" as="geometry" />
        </mxCell>
        <mxCell id="lVgYKHHcY3sC3g97FkwV-46" value="MYSQL&lt;br style=&quot;font-size: 16px;&quot;&gt;Posts&lt;br style=&quot;font-size: 16px;&quot;&gt;Table" style="html=1;dashed=0;whiteSpace=wrap;shape=partialRectangle;right=0;left=0;fontSize=16;" parent="1" vertex="1">
          <mxGeometry x="910" y="400" width="150" height="70" as="geometry" />
        </mxCell>
        <mxCell id="lVgYKHHcY3sC3g97FkwV-52" value="Requests posts" style="text;html=1;align=center;verticalAlign=middle;resizable=0;points=[];autosize=1;strokeColor=none;fillColor=none;fontSize=16;" parent="1" vertex="1">
          <mxGeometry x="540" y="288" width="130" height="30" as="geometry" />
        </mxCell>
        <mxCell id="lVgYKHHcY3sC3g97FkwV-56" value="Provides &lt;br&gt;post content" style="text;html=1;align=center;verticalAlign=middle;resizable=0;points=[];autosize=1;strokeColor=none;fillColor=none;fontSize=16;" parent="1" vertex="1">
          <mxGeometry x="263.75" y="435" width="110" height="50" as="geometry" />
        </mxCell>
        <mxCell id="lVgYKHHcY3sC3g97FkwV-69" value="Comment &lt;br style=&quot;font-size: 16px;&quot;&gt;on posts" style="text;html=1;align=center;verticalAlign=middle;resizable=0;points=[];autosize=1;strokeColor=none;fillColor=none;fontSize=16;" parent="1" vertex="1">
          <mxGeometry x="240" y="645" width="90" height="50" as="geometry" />
        </mxCell>
        <mxCell id="lVgYKHHcY3sC3g97FkwV-71" value="MySQL&lt;br style=&quot;font-size: 16px;&quot;&gt;Comments&lt;br style=&quot;font-size: 16px;&quot;&gt;Table" style="html=1;dashed=0;whiteSpace=wrap;shape=partialRectangle;right=0;left=0;fontSize=16;" parent="1" vertex="1">
          <mxGeometry x="915" y="618" width="140" height="71" as="geometry" />
        </mxCell>
        <mxCell id="lVgYKHHcY3sC3g97FkwV-77" value="Follow users" style="text;html=1;align=center;verticalAlign=middle;resizable=0;points=[];autosize=1;strokeColor=none;fillColor=none;fontSize=16;" parent="1" vertex="1">
          <mxGeometry x="240" y="740" width="110" height="30" as="geometry" />
        </mxCell>
        <mxCell id="lVgYKHHcY3sC3g97FkwV-78" value="MySQL&lt;br style=&quot;font-size: 16px;&quot;&gt;Followers&lt;br style=&quot;font-size: 16px;&quot;&gt;Table" style="html=1;dashed=0;whiteSpace=wrap;shape=partialRectangle;right=0;left=0;fontSize=16;" parent="1" vertex="1">
          <mxGeometry x="1080" y="689" width="140" height="61" as="geometry" />
        </mxCell>
        <mxCell id="cpMGikvbHMnme9OzsODJ-15" style="edgeStyle=orthogonalEdgeStyle;rounded=0;orthogonalLoop=1;jettySize=auto;html=1;entryX=0.5;entryY=0;entryDx=0;entryDy=0;" edge="1" parent="1" source="lVgYKHHcY3sC3g97FkwV-84" target="lVgYKHHcY3sC3g97FkwV-7">
          <mxGeometry relative="1" as="geometry" />
        </mxCell>
        <mxCell id="lVgYKHHcY3sC3g97FkwV-84" value="&lt;div style=&quot;font-size: 16px;&quot;&gt;5&lt;/div&gt;&lt;div style=&quot;font-size: 16px;&quot;&gt;test-display-post.php&lt;div style=&quot;border-color: var(--border-color); font-size: 16px;&quot;&gt;&lt;br style=&quot;font-size: 16px;&quot;&gt;&lt;/div&gt;&lt;/div&gt;" style="ellipse;whiteSpace=wrap;html=1;aspect=fixed;fontSize=16;" parent="1" vertex="1">
          <mxGeometry x="373.75" y="603.5" width="100" height="100" as="geometry" />
        </mxCell>
        <mxCell id="lVgYKHHcY3sC3g97FkwV-96" value="Updates Account Contents" style="text;html=1;align=center;verticalAlign=middle;resizable=0;points=[];autosize=1;strokeColor=none;fillColor=none;fontSize=16;" parent="1" vertex="1">
          <mxGeometry x="130" y="820" width="210" height="30" as="geometry" />
        </mxCell>
        <mxCell id="lVgYKHHcY3sC3g97FkwV-99" value="Updates Account &lt;br style=&quot;font-size: 16px;&quot;&gt;Information" style="text;html=1;align=center;verticalAlign=middle;resizable=0;points=[];autosize=1;strokeColor=none;fillColor=none;fontSize=16;" parent="1" vertex="1">
          <mxGeometry x="1060" y="80" width="140" height="50" as="geometry" />
        </mxCell>
        <mxCell id="lVgYKHHcY3sC3g97FkwV-103" value="Sends Messeges" style="text;html=1;align=center;verticalAlign=middle;resizable=0;points=[];autosize=1;strokeColor=none;fillColor=none;fontSize=16;" parent="1" vertex="1">
          <mxGeometry x="210" y="961" width="150" height="30" as="geometry" />
        </mxCell>
        <mxCell id="lVgYKHHcY3sC3g97FkwV-105" value="Stores messeges" style="text;html=1;align=center;verticalAlign=middle;resizable=0;points=[];autosize=1;strokeColor=none;fillColor=none;fontSize=16;" parent="1" vertex="1">
          <mxGeometry x="575" y="961" width="150" height="30" as="geometry" />
        </mxCell>
        <mxCell id="lVgYKHHcY3sC3g97FkwV-107" value="Returns alll recived messages" style="text;html=1;align=center;verticalAlign=middle;resizable=0;points=[];autosize=1;strokeColor=none;fillColor=none;fontSize=16;" parent="1" vertex="1">
          <mxGeometry x="530" y="999" width="240" height="30" as="geometry" />
        </mxCell>
        <mxCell id="CSQUxUXz5eu-vYHftbsT-1" value="manages &lt;br style=&quot;font-size: 16px;&quot;&gt;posts" style="text;html=1;align=center;verticalAlign=middle;resizable=0;points=[];autosize=1;strokeColor=none;fillColor=none;fontSize=16;" parent="1" vertex="1">
          <mxGeometry x="263.75" y="589" width="90" height="50" as="geometry" />
        </mxCell>
        <mxCell id="lVgYKHHcY3sC3g97FkwV-8" value="8&lt;br style=&quot;font-size: 16px;&quot;&gt;test-account.php&lt;div style=&quot;border-color: var(--border-color); font-size: 16px;&quot;&gt;&lt;br style=&quot;border-color: var(--border-color); font-size: 16px;&quot;&gt;&lt;/div&gt;" style="ellipse;whiteSpace=wrap;html=1;aspect=fixed;fontSize=16;" parent="1" vertex="1">
          <mxGeometry x="373.75" y="870" width="100" height="100" as="geometry" />
        </mxCell>
        <mxCell id="cpMGikvbHMnme9OzsODJ-6" value="Super Admin" style="rounded=0;whiteSpace=wrap;html=1;fontSize=16;" vertex="1" parent="1">
          <mxGeometry x="-460" y="600" width="120" height="60" as="geometry" />
        </mxCell>
        <mxCell id="cpMGikvbHMnme9OzsODJ-8" value="" style="endArrow=classic;html=1;rounded=0;entryX=0;entryY=0.5;entryDx=0;entryDy=0;exitX=1;exitY=0.5;exitDx=0;exitDy=0;" edge="1" parent="1" source="lVgYKHHcY3sC3g97FkwV-1" target="lVgYKHHcY3sC3g97FkwV-2">
          <mxGeometry width="50" height="50" relative="1" as="geometry">
            <mxPoint x="-310" y="101" as="sourcePoint" />
            <mxPoint x="-40" y="130" as="targetPoint" />
          </mxGeometry>
        </mxCell>
        <mxCell id="cpMGikvbHMnme9OzsODJ-9" value="" style="endArrow=none;html=1;rounded=0;exitX=1;exitY=0.5;exitDx=0;exitDy=0;" edge="1" parent="1" source="lVgYKHHcY3sC3g97FkwV-11">
          <mxGeometry width="50" height="50" relative="1" as="geometry">
            <mxPoint x="-330" y="380" as="sourcePoint" />
            <mxPoint x="-280" y="110" as="targetPoint" />
            <Array as="points">
              <mxPoint x="-280" y="348" />
            </Array>
          </mxGeometry>
        </mxCell>
        <mxCell id="cpMGikvbHMnme9OzsODJ-10" value="" style="endArrow=none;html=1;rounded=0;exitX=0.997;exitY=0.52;exitDx=0;exitDy=0;exitPerimeter=0;" edge="1" parent="1" source="cpMGikvbHMnme9OzsODJ-6">
          <mxGeometry width="50" height="50" relative="1" as="geometry">
            <mxPoint x="-350" y="660" as="sourcePoint" />
            <mxPoint x="-280" y="350" as="targetPoint" />
            <Array as="points">
              <mxPoint x="-280" y="630" />
            </Array>
          </mxGeometry>
        </mxCell>
        <mxCell id="cpMGikvbHMnme9OzsODJ-12" value="" style="endArrow=classic;html=1;rounded=0;exitX=0.986;exitY=0.361;exitDx=0;exitDy=0;entryX=0.045;entryY=0.25;entryDx=0;entryDy=0;entryPerimeter=0;exitPerimeter=0;" edge="1" parent="1" source="lVgYKHHcY3sC3g97FkwV-2" target="lVgYKHHcY3sC3g97FkwV-14">
          <mxGeometry width="50" height="50" relative="1" as="geometry">
            <mxPoint x="500" y="120" as="sourcePoint" />
            <mxPoint x="620" y="80" as="targetPoint" />
          </mxGeometry>
        </mxCell>
        <mxCell id="cpMGikvbHMnme9OzsODJ-13" value="" style="endArrow=classic;html=1;rounded=0;entryX=1;entryY=0.5;entryDx=0;entryDy=0;exitX=0;exitY=0.5;exitDx=0;exitDy=0;" edge="1" parent="1" source="lVgYKHHcY3sC3g97FkwV-14" target="lVgYKHHcY3sC3g97FkwV-2">
          <mxGeometry width="50" height="50" relative="1" as="geometry">
            <mxPoint x="580" y="200" as="sourcePoint" />
            <mxPoint x="630" y="150" as="targetPoint" />
          </mxGeometry>
        </mxCell>
      </root>
    </mxGraphModel>
  </diagram>
</mxfile>
